# xmcd
#
# Track frame offsets:
#	182
#	1730
#	12472
#	35167
#	58345
#	73715
#	85522
#	104095
#	126600
#	143565
#	169397
#	192032
#	207890
#	230367
#	269747
#	293470
#
# Disc length: 3947 seconds
#
# Revision: 11
# Processed by: cddbd v1.5.2PL0 Copyright (c) Steve Scherf et al.
# Submitted via: EZCDAudioConverter 2.1.7.1
#
DISCID=ed0f6910
DTITLE=Pizzicato Five - The Sound Of Music
DYEAR=1995
DGENRE=
TTITLE0=We Love Pizzicato Five
TTITLE1=Rock N' Roll
TTITLE2=The Night Is Still Young
TTITLE3=Happy Sad
TTITLE4=Groovy Is My Name
TTITLE5=Sophisticated Catchy
TTITLE6=Strawberry Sleighride
TTITLE7=If I Were A Groupie
TTITLE8=Sweet Thursday
TTITLE9=CDJ
TTITLE10=Fortune Cookie
TTITLE11=Good
TTITLE12=No. 5
TTITLE13=Peace Music [St. Etienne Remix]
TTITLE14=Airplane
TTITLE15=Rock N' Roll
EXTD=
EXTT0=
EXTT1=
EXTT2=
EXTT3=
EXTT4=
EXTT5=
EXTT6=
EXTT7=
EXTT8=
EXTT9=
EXTT10=
EXTT11=
EXTT12=
EXTT13=
EXTT14=
EXTT15=
PLAYORDER=
